<svg xmlns="http://www.w3.org/2000/svg" width="742" height="710.234" viewBox="0 0 742 710.234">
  <g id="Gruppe_1" data-name="Gruppe 1" transform="translate(-474 -254)">
    <g id="Schnittmenge_1" data-name="Schnittmenge 1" transform="translate(478 201)" fill="#2655d2">
      <path d="M 613.9998168945313 467.9999084472656 C 610.0783081054688 467.9999084472656 606.2000122070313 467.8082885742188 602.3798217773438 467.4338073730469 L 600.4873046875 467.248291015625 L 598.65869140625 467.7703857421875 C 598.1254272460938 467.9226989746094 597.5671997070313 467.9999084472656 596.9996948242188 467.9999084472656 L 108.0000152587891 467.9999084472656 C 107.3845138549805 467.9999084472656 106.7812118530273 467.9092102050781 106.206916809082 467.7304077148438 L 105.2837142944336 467.4429016113281 L 104.3225173950195 467.3375854492188 C 48.26971435546875 461.197509765625 6.000413417816162 413.9775085449219 6.000413417816162 357.4997863769531 C 6.000413417816162 296.5697937011719 55.57011413574219 246.9996948242188 116.4996109008789 246.9996948242188 C 118.3127136230469 246.9996948242188 120.1176147460938 247.0435028076172 121.9100112915039 247.1295013427734 L 130.912109375 247.5612945556641 L 132.2743072509766 238.6524963378906 C 140.4382171630859 185.2617950439453 187.3949127197266 145 241.4997100830078 145 C 243.6250152587891 145 245.7347106933594 145.0594024658203 247.8295135498047 145.1782989501953 L 255.3837127685547 145.6072998046875 L 257.8502197265625 138.4541931152344 C 273.412109375 93.32279968261719 316.8743286132813 63.00009918212891 366.0003051757813 63.00009918212891 C 415.0920104980469 63.00009918212891 458.5431213378906 93.29270172119141 474.1229248046875 138.37939453125 L 476.5547180175781 145.4170074462891 L 483.9941101074219 145.1045989990234 C 485.6549072265625 145.0348052978516 487.3223266601563 145 488.9997253417969 145 C 544.7850341796875 145 593.2244262695313 185.2337951660156 601.6740112304688 238.5872955322266 L 603.037109375 247.1941986083984 L 611.74951171875 247.0211029052734 L 613.9998168945313 246.9996948242188 C 676.8597412109375 246.9996948242188 728 296.5697937011719 728 357.4997863769531 C 728 418.4298095703125 676.8597412109375 467.9999084472656 613.9998168945313 467.9999084472656 Z" stroke="none"/>
      <path d="M 613.9998779296875 457.9998779296875 C 671.3457641601563 457.9998779296875 718 412.915771484375 718 357.4997863769531 C 718 302.0837707519531 671.3457641601563 256.9996643066406 613.9998779296875 256.9996643066406 L 611.9486694335938 257.0191040039063 L 594.523193359375 257.3657836914063 L 591.797119140625 240.1514434814453 C 584.1091918945313 191.6072235107422 539.916015625 155 488.999755859375 155 C 487.4632263183594 155 485.9358825683594 155.0318908691406 484.41455078125 155.0957794189453 L 469.5352172851563 155.7213287353516 L 464.6713256835938 141.6455535888672 C 450.4833374023438 100.586555480957 410.8304443359375 73.00011444091797 366.0003356933594 73.00011444091797 C 321.1387634277344 73.00011444091797 281.4757690429688 100.6141128540039 267.3039855957031 141.7140045166016 L 262.3708801269531 156.0205535888672 L 247.2621002197266 155.1622161865234 C 245.3549957275391 155.0538940429688 243.4345397949219 155 241.4997711181641 155 C 192.2904357910156 155 149.5833282470703 191.612548828125 142.1594390869141 240.1640014648438 L 139.4349975585938 257.9812316894531 L 121.4313278198242 257.1180114746094 C 119.7974395751953 257.0396728515625 118.1523284912109 256.9996643066406 116.4996566772461 256.9996643066406 C 61.08421325683594 256.9996643066406 16.00043678283691 302.0837707519531 16.00043678283691 357.4997863769531 C 16.00043678283691 408.8670043945313 54.43877029418945 451.8134460449219 105.4114379882813 457.3970031738281 L 107.3338775634766 457.607666015625 L 108.5933837890625 457.9998779296875 L 596.455322265625 457.9998779296875 L 599.5704345703125 457.1105651855469 L 603.3553466796875 457.4815673828125 C 606.8548583984375 457.8245544433594 610.4075317382813 457.9998779296875 613.9998779296875 457.9998779296875 M 613.9998779296875 477.9998779296875 C 609.7490844726563 477.9998779296875 605.5452270507813 477.7919921875 601.404296875 477.3861083984375 C 600.0048828125 477.7856750488281 598.5278930664063 477.9998779296875 596.9996337890625 477.9998779296875 L 107.9999923706055 477.9998779296875 C 106.3404388427734 477.9998779296875 104.7393264770508 477.7470092773438 103.2336578369141 477.2781066894531 C 42.92732620239258 470.672119140625 -3.999564170837402 419.565673828125 -3.999564170837402 357.4997863769531 C -3.999564170837402 290.9502258300781 49.94999313354492 236.9996643066406 116.4996566772461 236.9996643066406 C 118.4733276367188 236.9996643066406 120.43798828125 237.0474395751953 122.3892135620117 237.1410064697266 C 131.2326507568359 179.3061065673828 181.1934356689453 135 241.4997711181641 135 C 243.8154296875 135 246.1139984130859 135.0647735595703 248.3964385986328 135.1944427490234 C 264.8682250976563 87.42422485351563 311.2974243164063 53.0001106262207 366.0003356933594 53.0001106262207 C 420.6726684570313 53.0001106262207 467.0811157226563 87.38277435302734 483.5745544433594 135.1134490966797 C 485.3745422363281 135.0377807617188 487.1816711425781 135 488.999755859375 135 C 551.0169067382813 135 602.400634765625 179.2448883056641 611.5509033203125 237.0231170654297 C 612.3663330078125 237.0068817138672 613.1807861328125 236.9996643066406 613.9998779296875 236.9996643066406 C 682.4835205078125 236.9996643066406 738 290.9502258300781 738 357.4997863769531 C 738 424.0503234863281 682.4835205078125 477.9998779296875 613.9998779296875 477.9998779296875 Z" stroke="none" fill="#fff"/>
    </g>
    <g id="Schnittmenge_2" data-name="Schnittmenge 2" transform="translate(714 393)" fill="#ffc400" stroke-linecap="square">
      <path d="M 115.2065200805664 514.0802612304688 L 168.2975616455078 287.8228759765625 L 171.1800537109375 275.5384826660156 L 158.5619659423828 275.5384826660156 L 18.17263412475586 275.5384826660156 C 22.60712242126465 251.0911254882813 33.23585891723633 186.5007781982422 61.72421264648438 11.06563854217529 L 208.623291015625 11.06563854217529 L 149.0306396484375 198.8039703369141 L 144.8960571289063 211.8294677734375 L 158.5619659423828 211.8294677734375 L 302.6793518066406 211.8294677734375 L 115.2065200805664 514.0802612304688 Z" stroke="none"/>
      <path d="M 70.23158264160156 21.06561279296875 C 46.70574951171875 165.959228515625 35.742919921875 233.3818664550781 30.0838623046875 265.5385131835938 L 158.5619812011719 265.5385131835938 L 183.7981719970703 265.5385131835938 L 178.0331726074219 290.107421875 L 138.8892974853516 456.92626953125 L 284.70947265625 221.8294982910156 L 158.5619812011719 221.8294982910156 L 131.2300720214844 221.8294982910156 L 139.499267578125 195.7785949707031 L 194.957275390625 21.06561279296875 L 70.23158264160156 21.06561279296875 M 53.21697998046875 1.06561279296875 L 222.2891693115234 1.06561279296875 L 158.5619812011719 201.8294982910156 L 319.6935424804688 201.8294982910156 L 319.6935424804688 203.3705139160156 L 91.52371215820313 571.2344970703125 L 158.5619812011719 285.5385131835938 L 6.290069580078125 285.5385131835938 C 7.247711181640625 284.1929626464844 53.21697998046875 1.06561279296875 53.21697998046875 1.06561279296875 Z" stroke="none" fill="#fff"/>
    </g>
  </g>
</svg>
